<mxfile host="app.diagrams.net" modified="2022-12-25T11:16:27.136Z" agent="5.0 (Macintosh; Intel Mac OS X 10_14_6) AppleWebKit/537.36 (KHTML, like Gecko) Chrome/108.0.0.0 Safari/537.36" version="20.7.4" etag="aXsveqO1yVaLB8XZvliO" type="github">
  <diagram id="r3l2ahODvOMGXflR9g-t" name="Page-1">
    <mxGraphModel dx="2074" dy="1138" grid="1" gridSize="10" guides="1" tooltips="1" connect="1" arrows="1" fold="1" page="1" pageScale="1" pageWidth="827" pageHeight="1169" math="0" shadow="0">
      <root>
        <mxCell id="0" />
        <mxCell id="1" parent="0" />
        <mxCell id="2fNyQpA2yWDFW24Vfmj4-1" value="" style="rounded=0;whiteSpace=wrap;html=1;" vertex="1" parent="1">
          <mxGeometry x="120" y="320" width="660" height="290" as="geometry" />
        </mxCell>
        <mxCell id="2fNyQpA2yWDFW24Vfmj4-2" value="" style="outlineConnect=0;dashed=0;verticalLabelPosition=bottom;verticalAlign=top;align=center;html=1;shape=mxgraph.aws3.elastic_beanstalk;fillColor=#F58534;gradientColor=none;" vertex="1" parent="1">
          <mxGeometry x="370" y="378.5" width="120" height="173" as="geometry" />
        </mxCell>
        <mxCell id="2fNyQpA2yWDFW24Vfmj4-3" value="&lt;h3&gt;&lt;font face=&quot;Verdana&quot;&gt;Elastic&lt;br&gt;Beanstalk&lt;/font&gt;&lt;/h3&gt;" style="text;strokeColor=none;fillColor=none;html=1;fontSize=24;fontStyle=1;verticalAlign=middle;align=left;" vertex="1" parent="1">
          <mxGeometry x="460" y="480" width="100" height="40" as="geometry" />
        </mxCell>
      </root>
    </mxGraphModel>
  </diagram>
</mxfile>
